<mxfile host="app.diagrams.net" agent="Mozilla/5.0 (Windows NT 10.0; Win64; x64; rv:131.0) Gecko/20100101 Firefox/131.0" version="24.8.3">
  <diagram name="Page-1" id="eJ1suCUGfrgjvpVPt0L2">
    <mxGraphModel dx="1687" dy="966" grid="0" gridSize="10" guides="1" tooltips="1" connect="1" arrows="1" fold="1" page="1" pageScale="1" pageWidth="1400" pageHeight="900" background="#000000" math="0" shadow="0">
      <root>
        <mxCell id="0" />
        <mxCell id="1" parent="0" />
        <mxCell id="LxQ198Bzji2fROzqUYcq-34" style="edgeStyle=orthogonalEdgeStyle;rounded=0;orthogonalLoop=1;jettySize=auto;html=1;strokeColor=#FFFFF5;endArrow=none;endFill=0;startArrow=ERmany;startFill=0;" edge="1" parent="1" source="LxQ198Bzji2fROzqUYcq-1">
          <mxGeometry relative="1" as="geometry">
            <mxPoint x="484" y="562" as="targetPoint" />
          </mxGeometry>
        </mxCell>
        <mxCell id="LxQ198Bzji2fROzqUYcq-1" value="&lt;div&gt;Trail&lt;/div&gt;" style="swimlane;fontStyle=0;childLayout=stackLayout;horizontal=1;startSize=30;horizontalStack=0;resizeParent=1;resizeParentMax=0;resizeLast=0;collapsible=1;marginBottom=0;whiteSpace=wrap;html=1;strokeColor=#FFFFF5;rounded=1;movable=1;resizable=1;rotatable=1;deletable=1;editable=1;locked=0;connectable=1;" vertex="1" parent="1">
          <mxGeometry x="414" y="191" width="140" height="330" as="geometry">
            <mxRectangle x="399" y="1090" width="59" height="30" as="alternateBounds" />
          </mxGeometry>
        </mxCell>
        <mxCell id="LxQ198Bzji2fROzqUYcq-2" value="&lt;font color=&quot;#fffff5&quot;&gt;&lt;u&gt;Trail ID&lt;br&gt;&lt;/u&gt;&lt;/font&gt;" style="text;strokeColor=none;fillColor=none;align=left;verticalAlign=middle;spacingLeft=4;spacingRight=4;overflow=hidden;points=[[0,0.5],[1,0.5]];portConstraint=eastwest;rotatable=0;whiteSpace=wrap;html=1;" vertex="1" parent="LxQ198Bzji2fROzqUYcq-1">
          <mxGeometry y="30" width="140" height="30" as="geometry" />
        </mxCell>
        <mxCell id="LxQ198Bzji2fROzqUYcq-3" value="Trail Name" style="text;strokeColor=none;fillColor=none;align=left;verticalAlign=middle;spacingLeft=4;spacingRight=4;overflow=hidden;points=[[0,0.5],[1,0.5]];portConstraint=eastwest;rotatable=0;whiteSpace=wrap;html=1;fontColor=#FFFFF5;" vertex="1" parent="LxQ198Bzji2fROzqUYcq-1">
          <mxGeometry y="60" width="140" height="30" as="geometry" />
        </mxCell>
        <mxCell id="LxQ198Bzji2fROzqUYcq-28" value="&lt;font color=&quot;#ff9999&quot;&gt;*Trail Owner&lt;/font&gt;" style="text;strokeColor=none;fillColor=none;align=left;verticalAlign=middle;spacingLeft=4;spacingRight=4;overflow=hidden;points=[[0,0.5],[1,0.5]];portConstraint=eastwest;rotatable=0;whiteSpace=wrap;html=1;fontColor=#FFFFF5;" vertex="1" parent="LxQ198Bzji2fROzqUYcq-1">
          <mxGeometry y="90" width="140" height="30" as="geometry" />
        </mxCell>
        <mxCell id="LxQ198Bzji2fROzqUYcq-4" value="&lt;div&gt;Difficulty&lt;/div&gt;" style="text;strokeColor=none;fillColor=none;align=left;verticalAlign=middle;spacingLeft=4;spacingRight=4;overflow=hidden;points=[[0,0.5],[1,0.5]];portConstraint=eastwest;rotatable=0;whiteSpace=wrap;html=1;fontColor=#FFFFF5;" vertex="1" parent="LxQ198Bzji2fROzqUYcq-1">
          <mxGeometry y="120" width="140" height="30" as="geometry" />
        </mxCell>
        <mxCell id="LxQ198Bzji2fROzqUYcq-11" value="&lt;div&gt;Location ID&lt;/div&gt;" style="text;strokeColor=none;fillColor=none;align=left;verticalAlign=middle;spacingLeft=4;spacingRight=4;overflow=hidden;points=[[0,0.5],[1,0.5]];portConstraint=eastwest;rotatable=0;whiteSpace=wrap;html=1;fontColor=#FFFFF5;" vertex="1" parent="LxQ198Bzji2fROzqUYcq-1">
          <mxGeometry y="150" width="140" height="30" as="geometry" />
        </mxCell>
        <mxCell id="LxQ198Bzji2fROzqUYcq-12" value="&lt;div&gt;Distance&lt;/div&gt;" style="text;strokeColor=none;fillColor=none;align=left;verticalAlign=middle;spacingLeft=4;spacingRight=4;overflow=hidden;points=[[0,0.5],[1,0.5]];portConstraint=eastwest;rotatable=0;whiteSpace=wrap;html=1;fontColor=#FFFFF5;" vertex="1" parent="LxQ198Bzji2fROzqUYcq-1">
          <mxGeometry y="180" width="140" height="30" as="geometry" />
        </mxCell>
        <mxCell id="LxQ198Bzji2fROzqUYcq-13" value="Elevation Gain" style="text;strokeColor=none;fillColor=none;align=left;verticalAlign=middle;spacingLeft=4;spacingRight=4;overflow=hidden;points=[[0,0.5],[1,0.5]];portConstraint=eastwest;rotatable=0;whiteSpace=wrap;html=1;fontColor=#FFFFF5;" vertex="1" parent="LxQ198Bzji2fROzqUYcq-1">
          <mxGeometry y="210" width="140" height="30" as="geometry" />
        </mxCell>
        <mxCell id="LxQ198Bzji2fROzqUYcq-14" value="Estimated Time" style="text;strokeColor=none;fillColor=none;align=left;verticalAlign=middle;spacingLeft=4;spacingRight=4;overflow=hidden;points=[[0,0.5],[1,0.5]];portConstraint=eastwest;rotatable=0;whiteSpace=wrap;html=1;fontColor=#FFFFF5;" vertex="1" parent="LxQ198Bzji2fROzqUYcq-1">
          <mxGeometry y="240" width="140" height="30" as="geometry" />
        </mxCell>
        <mxCell id="LxQ198Bzji2fROzqUYcq-15" value="Trail Type" style="text;strokeColor=none;fillColor=none;align=left;verticalAlign=middle;spacingLeft=4;spacingRight=4;overflow=hidden;points=[[0,0.5],[1,0.5]];portConstraint=eastwest;rotatable=0;whiteSpace=wrap;html=1;fontColor=#FFFFF5;" vertex="1" parent="LxQ198Bzji2fROzqUYcq-1">
          <mxGeometry y="270" width="140" height="30" as="geometry" />
        </mxCell>
        <mxCell id="LxQ198Bzji2fROzqUYcq-16" value="Last Updated" style="text;strokeColor=none;fillColor=none;align=left;verticalAlign=middle;spacingLeft=4;spacingRight=4;overflow=hidden;points=[[0,0.5],[1,0.5]];portConstraint=eastwest;rotatable=0;whiteSpace=wrap;html=1;fontColor=#FFFFF5;" vertex="1" parent="LxQ198Bzji2fROzqUYcq-1">
          <mxGeometry y="300" width="140" height="30" as="geometry" />
        </mxCell>
        <mxCell id="LxQ198Bzji2fROzqUYcq-5" value="Location" style="swimlane;fontStyle=0;childLayout=stackLayout;horizontal=1;startSize=30;horizontalStack=0;resizeParent=1;resizeParentMax=0;resizeLast=0;collapsible=1;marginBottom=0;whiteSpace=wrap;html=1;strokeColor=#FFFFF5;rounded=1;" vertex="1" parent="1">
          <mxGeometry x="414" y="604" width="140" height="150" as="geometry" />
        </mxCell>
        <mxCell id="LxQ198Bzji2fROzqUYcq-6" value="&lt;font color=&quot;#fffff5&quot;&gt;Location ID&lt;br&gt;&lt;/font&gt;" style="text;strokeColor=none;fillColor=none;align=left;verticalAlign=middle;spacingLeft=4;spacingRight=4;overflow=hidden;points=[[0,0.5],[1,0.5]];portConstraint=eastwest;rotatable=0;whiteSpace=wrap;html=1;" vertex="1" parent="LxQ198Bzji2fROzqUYcq-5">
          <mxGeometry y="30" width="140" height="30" as="geometry" />
        </mxCell>
        <mxCell id="LxQ198Bzji2fROzqUYcq-7" value="Town" style="text;strokeColor=none;fillColor=none;align=left;verticalAlign=middle;spacingLeft=4;spacingRight=4;overflow=hidden;points=[[0,0.5],[1,0.5]];portConstraint=eastwest;rotatable=0;whiteSpace=wrap;html=1;fontColor=#FFFFF5;" vertex="1" parent="LxQ198Bzji2fROzqUYcq-5">
          <mxGeometry y="60" width="140" height="30" as="geometry" />
        </mxCell>
        <mxCell id="LxQ198Bzji2fROzqUYcq-8" value="County" style="text;strokeColor=none;fillColor=none;align=left;verticalAlign=middle;spacingLeft=4;spacingRight=4;overflow=hidden;points=[[0,0.5],[1,0.5]];portConstraint=eastwest;rotatable=0;whiteSpace=wrap;html=1;fontColor=#FFFFF5;" vertex="1" parent="LxQ198Bzji2fROzqUYcq-5">
          <mxGeometry y="90" width="140" height="30" as="geometry" />
        </mxCell>
        <mxCell id="LxQ198Bzji2fROzqUYcq-17" value="Country" style="text;strokeColor=none;fillColor=none;align=left;verticalAlign=middle;spacingLeft=4;spacingRight=4;overflow=hidden;points=[[0,0.5],[1,0.5]];portConstraint=eastwest;rotatable=0;whiteSpace=wrap;html=1;fontColor=#FFFFF5;" vertex="1" parent="LxQ198Bzji2fROzqUYcq-5">
          <mxGeometry y="120" width="140" height="30" as="geometry" />
        </mxCell>
        <mxCell id="LxQ198Bzji2fROzqUYcq-18" value="Trail_Feature" style="swimlane;fontStyle=0;childLayout=stackLayout;horizontal=1;startSize=30;horizontalStack=0;resizeParent=1;resizeParentMax=0;resizeLast=0;collapsible=1;marginBottom=0;whiteSpace=wrap;html=1;strokeColor=#FFFFF5;rounded=1;" vertex="1" parent="1">
          <mxGeometry x="675" y="311" width="140" height="90" as="geometry" />
        </mxCell>
        <mxCell id="LxQ198Bzji2fROzqUYcq-19" value="&lt;font color=&quot;#fffff5&quot;&gt;Trail ID&lt;br&gt;&lt;/font&gt;" style="text;strokeColor=none;fillColor=none;align=left;verticalAlign=middle;spacingLeft=4;spacingRight=4;overflow=hidden;points=[[0,0.5],[1,0.5]];portConstraint=eastwest;rotatable=0;whiteSpace=wrap;html=1;" vertex="1" parent="LxQ198Bzji2fROzqUYcq-18">
          <mxGeometry y="30" width="140" height="30" as="geometry" />
        </mxCell>
        <mxCell id="LxQ198Bzji2fROzqUYcq-20" value="Feature ID" style="text;strokeColor=none;fillColor=none;align=left;verticalAlign=middle;spacingLeft=4;spacingRight=4;overflow=hidden;points=[[0,0.5],[1,0.5]];portConstraint=eastwest;rotatable=0;whiteSpace=wrap;html=1;fontColor=#FFFFF5;" vertex="1" parent="LxQ198Bzji2fROzqUYcq-18">
          <mxGeometry y="60" width="140" height="30" as="geometry" />
        </mxCell>
        <mxCell id="LxQ198Bzji2fROzqUYcq-23" value="Feature" style="swimlane;fontStyle=0;childLayout=stackLayout;horizontal=1;startSize=30;horizontalStack=0;resizeParent=1;resizeParentMax=0;resizeLast=0;collapsible=1;marginBottom=0;whiteSpace=wrap;html=1;strokeColor=#FFFFF5;rounded=1;" vertex="1" parent="1">
          <mxGeometry x="933" y="311" width="140" height="90" as="geometry" />
        </mxCell>
        <mxCell id="LxQ198Bzji2fROzqUYcq-24" value="&lt;font color=&quot;#fffff5&quot;&gt;Feature ID&lt;br&gt;&lt;/font&gt;" style="text;strokeColor=none;fillColor=none;align=left;verticalAlign=middle;spacingLeft=4;spacingRight=4;overflow=hidden;points=[[0,0.5],[1,0.5]];portConstraint=eastwest;rotatable=0;whiteSpace=wrap;html=1;" vertex="1" parent="LxQ198Bzji2fROzqUYcq-23">
          <mxGeometry y="30" width="140" height="30" as="geometry" />
        </mxCell>
        <mxCell id="LxQ198Bzji2fROzqUYcq-25" value="Feature Name" style="text;strokeColor=none;fillColor=none;align=left;verticalAlign=middle;spacingLeft=4;spacingRight=4;overflow=hidden;points=[[0,0.5],[1,0.5]];portConstraint=eastwest;rotatable=0;whiteSpace=wrap;html=1;fontColor=#FFFFF5;" vertex="1" parent="LxQ198Bzji2fROzqUYcq-23">
          <mxGeometry y="60" width="140" height="30" as="geometry" />
        </mxCell>
        <mxCell id="LxQ198Bzji2fROzqUYcq-29" value="Task states trails are owned by a user, of which &lt;b&gt;Trail Owner&lt;/b&gt; would identify that trail&#39;s user.&lt;br&gt;This will not be implemented as it is outside the scope of CW1. It could link to the AccountService in the future." style="rounded=0;whiteSpace=wrap;html=1;fillColor=#000000;strokeColor=#FF9999;labelBackgroundColor=none;fontColor=#FFFFF5;" vertex="1" parent="1">
          <mxGeometry x="289" y="284" width="119" height="177" as="geometry" />
        </mxCell>
        <mxCell id="LxQ198Bzji2fROzqUYcq-32" style="edgeStyle=orthogonalEdgeStyle;rounded=0;orthogonalLoop=1;jettySize=auto;html=1;entryX=0;entryY=0.5;entryDx=0;entryDy=0;strokeColor=#FFFFF5;endArrow=ERmany;endFill=0;" edge="1" parent="1" target="LxQ198Bzji2fROzqUYcq-18">
          <mxGeometry relative="1" as="geometry">
            <mxPoint x="615" y="356" as="sourcePoint" />
          </mxGeometry>
        </mxCell>
        <mxCell id="LxQ198Bzji2fROzqUYcq-33" style="edgeStyle=orthogonalEdgeStyle;rounded=0;orthogonalLoop=1;jettySize=auto;html=1;strokeColor=#FFFFF5;endArrow=none;endFill=0;startArrow=ERmany;startFill=0;" edge="1" parent="1" source="LxQ198Bzji2fROzqUYcq-19">
          <mxGeometry relative="1" as="geometry">
            <mxPoint x="875" y="356" as="targetPoint" />
          </mxGeometry>
        </mxCell>
        <mxCell id="LxQ198Bzji2fROzqUYcq-35" value="Trail stores the information that describes a route." style="rounded=0;whiteSpace=wrap;html=1;fillColor=#000000;strokeColor=#FFFFF5;labelBackgroundColor=none;fontColor=#FFFFF5;" vertex="1" parent="1">
          <mxGeometry x="293" y="191" width="115" height="69" as="geometry" />
        </mxCell>
        <mxCell id="LxQ198Bzji2fROzqUYcq-36" value="Location describes which town the route belongs to." style="rounded=0;whiteSpace=wrap;html=1;fillColor=#000000;strokeColor=#FFFFF5;labelBackgroundColor=none;fontColor=#FFFFF5;" vertex="1" parent="1">
          <mxGeometry x="290" y="613" width="115" height="69" as="geometry" />
        </mxCell>
        <mxCell id="LxQ198Bzji2fROzqUYcq-37" value="&lt;div&gt;Trail_Feature is the associative/link entity between Trail and Feature.&lt;br&gt;&lt;/div&gt;" style="rounded=0;whiteSpace=wrap;html=1;fillColor=#000000;strokeColor=#FFFFF5;labelBackgroundColor=none;fontColor=#FFFFF5;" vertex="1" parent="1">
          <mxGeometry x="669.5" y="249" width="147.5" height="56" as="geometry" />
        </mxCell>
        <mxCell id="LxQ198Bzji2fROzqUYcq-38" value="Feature stores all of the possible features on routes (&quot;Trail Info&quot; &amp;amp; &quot;Features&quot;)." style="rounded=0;whiteSpace=wrap;html=1;fillColor=#000000;strokeColor=#FFFFF5;labelBackgroundColor=none;fontColor=#FFFFF5;" vertex="1" parent="1">
          <mxGeometry x="936.6199999999999" y="249" width="132.75" height="56" as="geometry" />
        </mxCell>
        <mxCell id="LxQ198Bzji2fROzqUYcq-39" value="" style="endArrow=none;dashed=1;html=1;rounded=0;strokeColor=#FFFFF5;entryX=0.5;entryY=0;entryDx=0;entryDy=0;" edge="1" parent="1" target="LxQ198Bzji2fROzqUYcq-5">
          <mxGeometry width="50" height="50" relative="1" as="geometry">
            <mxPoint x="484" y="562" as="sourcePoint" />
            <mxPoint x="581" y="457" as="targetPoint" />
          </mxGeometry>
        </mxCell>
        <mxCell id="LxQ198Bzji2fROzqUYcq-40" value="" style="endArrow=none;dashed=1;html=1;rounded=0;strokeColor=#FFFFF5;entryX=1;entryY=0.5;entryDx=0;entryDy=0;" edge="1" parent="1" target="LxQ198Bzji2fROzqUYcq-1">
          <mxGeometry width="50" height="50" relative="1" as="geometry">
            <mxPoint x="615" y="356" as="sourcePoint" />
            <mxPoint x="606.66" y="408" as="targetPoint" />
          </mxGeometry>
        </mxCell>
        <mxCell id="LxQ198Bzji2fROzqUYcq-41" value="" style="endArrow=none;dashed=1;html=1;rounded=0;strokeColor=#FFFFF5;entryX=-0.007;entryY=0.494;entryDx=0;entryDy=0;entryPerimeter=0;" edge="1" parent="1" target="LxQ198Bzji2fROzqUYcq-24">
          <mxGeometry width="50" height="50" relative="1" as="geometry">
            <mxPoint x="875" y="356" as="sourcePoint" />
            <mxPoint x="902" y="393.5" as="targetPoint" />
          </mxGeometry>
        </mxCell>
        <mxCell id="LxQ198Bzji2fROzqUYcq-42" value="&lt;b&gt;BadgeService&lt;/b&gt;" style="ellipse;shape=cloud;whiteSpace=wrap;html=1;" vertex="1" parent="1">
          <mxGeometry x="983" y="442" width="146" height="96" as="geometry" />
        </mxCell>
        <mxCell id="LxQ198Bzji2fROzqUYcq-43" value="&lt;b&gt;ProfileService&lt;br&gt;&lt;/b&gt;" style="ellipse;shape=cloud;whiteSpace=wrap;html=1;" vertex="1" parent="1">
          <mxGeometry x="1112" y="538" width="146" height="96" as="geometry" />
        </mxCell>
        <mxCell id="LxQ198Bzji2fROzqUYcq-44" value="&lt;b&gt;AccountService&lt;/b&gt;" style="ellipse;shape=cloud;whiteSpace=wrap;html=1;" vertex="1" parent="1">
          <mxGeometry x="862" y="498" width="146" height="96" as="geometry" />
        </mxCell>
        <mxCell id="LxQ198Bzji2fROzqUYcq-60" style="edgeStyle=orthogonalEdgeStyle;rounded=0;orthogonalLoop=1;jettySize=auto;html=1;entryX=0;entryY=0.25;entryDx=0;entryDy=0;strokeColor=#FFFFF5;" edge="1" parent="1" source="LxQ198Bzji2fROzqUYcq-45" target="LxQ198Bzji2fROzqUYcq-1">
          <mxGeometry relative="1" as="geometry" />
        </mxCell>
        <mxCell id="LxQ198Bzji2fROzqUYcq-45" value="&lt;b&gt;LinkedData&lt;br&gt;Service&lt;/b&gt;" style="ellipse;shape=cloud;whiteSpace=wrap;html=1;" vertex="1" parent="1">
          <mxGeometry x="131" y="221" width="129" height="105" as="geometry" />
        </mxCell>
        <mxCell id="LxQ198Bzji2fROzqUYcq-48" style="edgeStyle=orthogonalEdgeStyle;rounded=0;orthogonalLoop=1;jettySize=auto;html=1;strokeColor=#FFFFF5;entryX=1.021;entryY=0.138;entryDx=0;entryDy=0;entryPerimeter=0;" edge="1" parent="1" source="LxQ198Bzji2fROzqUYcq-46" target="LxQ198Bzji2fROzqUYcq-5">
          <mxGeometry relative="1" as="geometry">
            <mxPoint x="592.8333333333335" y="700.5" as="targetPoint" />
          </mxGeometry>
        </mxCell>
        <mxCell id="LxQ198Bzji2fROzqUYcq-46" value="&lt;b&gt;Recommender Service&lt;br&gt;&lt;/b&gt;" style="ellipse;shape=cloud;whiteSpace=wrap;html=1;" vertex="1" parent="1">
          <mxGeometry x="734" y="576" width="128" height="96" as="geometry" />
        </mxCell>
        <mxCell id="LxQ198Bzji2fROzqUYcq-47" value="&lt;b&gt;Comments Service&lt;br&gt;&lt;/b&gt;" style="ellipse;shape=cloud;whiteSpace=wrap;html=1;" vertex="1" parent="1">
          <mxGeometry x="1129" y="399" width="106" height="96" as="geometry" />
        </mxCell>
        <mxCell id="LxQ198Bzji2fROzqUYcq-49" value="&lt;i&gt;&lt;font color=&quot;#fffff5&quot;&gt;Assuming recommendations&lt;br&gt;are made based on location.&lt;br&gt;&lt;/font&gt;&lt;/i&gt;" style="text;html=1;align=center;verticalAlign=middle;resizable=0;points=[];autosize=1;strokeColor=none;fillColor=none;" vertex="1" parent="1">
          <mxGeometry x="567" y="624" width="176" height="41" as="geometry" />
        </mxCell>
        <mxCell id="LxQ198Bzji2fROzqUYcq-50" value="&lt;font color=&quot;#fffff5&quot;&gt;A trail &lt;b&gt;must &lt;/b&gt;be&lt;br&gt;registered to&lt;br&gt;&lt;b&gt;one &lt;/b&gt;&lt;/font&gt;&lt;font color=&quot;#fffff5&quot;&gt;location.&lt;/font&gt;" style="text;html=1;align=right;verticalAlign=middle;resizable=0;points=[];autosize=1;strokeColor=none;fillColor=none;" vertex="1" parent="1">
          <mxGeometry x="366" y="535" width="97" height="55" as="geometry" />
        </mxCell>
        <mxCell id="LxQ198Bzji2fROzqUYcq-51" value="&lt;font color=&quot;#fffff5&quot;&gt;A location &lt;b&gt;may &lt;/b&gt;have&lt;br&gt;&lt;/font&gt;&lt;div align=&quot;left&quot;&gt;&lt;font color=&quot;#fffff5&quot;&gt;&lt;b&gt;many &lt;/b&gt;trails.&lt;/font&gt;&lt;br&gt;&lt;/div&gt;" style="text;html=1;align=center;verticalAlign=middle;resizable=0;points=[];autosize=1;strokeColor=none;fillColor=none;" vertex="1" parent="1">
          <mxGeometry x="499" y="545" width="127" height="41" as="geometry" />
        </mxCell>
        <mxCell id="LxQ198Bzji2fROzqUYcq-52" value="&lt;div align=&quot;left&quot;&gt;&lt;font color=&quot;#fffff5&quot;&gt;Trail-feature&lt;/font&gt;&lt;br&gt;&lt;/div&gt;&lt;div align=&quot;left&quot;&gt;&lt;font color=&quot;#fffff5&quot;&gt;&lt;b&gt;must &lt;/b&gt;belongs to &lt;b&gt;one &lt;/b&gt;trail.&lt;/font&gt;&lt;br&gt;&lt;/div&gt;" style="text;html=1;align=left;verticalAlign=middle;resizable=0;points=[];autosize=1;strokeColor=none;fillColor=none;" vertex="1" parent="1">
          <mxGeometry x="576" y="383" width="158" height="41" as="geometry" />
        </mxCell>
        <mxCell id="LxQ198Bzji2fROzqUYcq-53" value="&lt;font color=&quot;#fffff5&quot;&gt;Trail &lt;b&gt;may &lt;/b&gt;have&lt;br&gt;&lt;b&gt;multiple&lt;br&gt;&lt;/b&gt;&lt;/font&gt;&lt;div&gt;&lt;font color=&quot;#fffff5&quot;&gt;trail-features.&lt;/font&gt;&lt;br&gt;&lt;/div&gt;" style="text;html=1;align=center;verticalAlign=middle;resizable=0;points=[];autosize=1;strokeColor=none;fillColor=none;" vertex="1" parent="1">
          <mxGeometry x="564" y="298" width="98" height="55" as="geometry" />
        </mxCell>
        <mxCell id="LxQ198Bzji2fROzqUYcq-54" value="&lt;font color=&quot;#fffff5&quot;&gt;Feature &lt;b&gt;may &lt;/b&gt;be&lt;br&gt;part of&lt;b&gt; many&lt;br&gt;&lt;/b&gt;trail-features.&lt;/font&gt;" style="text;html=1;align=center;verticalAlign=middle;resizable=0;points=[];autosize=1;strokeColor=none;fillColor=none;" vertex="1" parent="1">
          <mxGeometry x="825" y="298" width="104" height="55" as="geometry" />
        </mxCell>
        <mxCell id="LxQ198Bzji2fROzqUYcq-55" value="&lt;font color=&quot;#fffff5&quot;&gt;Trail-feature &lt;b&gt;must&lt;br&gt;&lt;/b&gt;represent&lt;br&gt;only &lt;b&gt;one &lt;/b&gt;feature.&lt;/font&gt;" style="text;html=1;align=center;verticalAlign=middle;resizable=0;points=[];autosize=1;strokeColor=none;fillColor=none;" vertex="1" parent="1">
          <mxGeometry x="819" y="369" width="116" height="55" as="geometry" />
        </mxCell>
        <mxCell id="LxQ198Bzji2fROzqUYcq-57" style="edgeStyle=orthogonalEdgeStyle;rounded=0;orthogonalLoop=1;jettySize=auto;html=1;entryX=0.55;entryY=0.95;entryDx=0;entryDy=0;entryPerimeter=0;strokeColor=#FFFFF5;" edge="1" parent="1" source="LxQ198Bzji2fROzqUYcq-17" target="LxQ198Bzji2fROzqUYcq-44">
          <mxGeometry relative="1" as="geometry" />
        </mxCell>
        <mxCell id="LxQ198Bzji2fROzqUYcq-58" value="&lt;font color=&quot;#fffff5&quot;&gt;&lt;i&gt;Assuming account stores the user&#39;s&lt;br&gt;location in town/county/country format.&lt;br&gt;&lt;/i&gt;&lt;/font&gt;" style="text;html=1;align=center;verticalAlign=middle;resizable=0;points=[];autosize=1;strokeColor=none;fillColor=none;" vertex="1" parent="1">
          <mxGeometry x="711.6199999999999" y="694" width="225" height="41" as="geometry" />
        </mxCell>
        <mxCell id="LxQ198Bzji2fROzqUYcq-61" style="edgeStyle=orthogonalEdgeStyle;rounded=0;orthogonalLoop=1;jettySize=auto;html=1;entryX=0.089;entryY=0.333;entryDx=0;entryDy=0;entryPerimeter=0;strokeColor=#FFFFF5;" edge="1" parent="1" source="LxQ198Bzji2fROzqUYcq-16" target="LxQ198Bzji2fROzqUYcq-44">
          <mxGeometry relative="1" as="geometry">
            <Array as="points">
              <mxPoint x="546" y="530" />
            </Array>
          </mxGeometry>
        </mxCell>
        <mxCell id="LxQ198Bzji2fROzqUYcq-62" style="edgeStyle=orthogonalEdgeStyle;rounded=0;orthogonalLoop=1;jettySize=auto;html=1;entryX=0.077;entryY=0.476;entryDx=0;entryDy=0;entryPerimeter=0;strokeColor=#FFFFF5;" edge="1" parent="1" source="LxQ198Bzji2fROzqUYcq-16" target="LxQ198Bzji2fROzqUYcq-42">
          <mxGeometry relative="1" as="geometry">
            <Array as="points">
              <mxPoint x="554" y="488" />
            </Array>
          </mxGeometry>
        </mxCell>
        <mxCell id="LxQ198Bzji2fROzqUYcq-64" value="" style="endArrow=classic;html=1;rounded=0;exitX=0.066;exitY=0.469;exitDx=0;exitDy=0;exitPerimeter=0;strokeColor=#FFFFF5;entryX=0.998;entryY=0.578;entryDx=0;entryDy=0;entryPerimeter=0;" edge="1" parent="1" source="LxQ198Bzji2fROzqUYcq-47" target="LxQ198Bzji2fROzqUYcq-14">
          <mxGeometry width="50" height="50" relative="1" as="geometry">
            <mxPoint x="1012" y="513" as="sourcePoint" />
            <mxPoint x="917" y="442" as="targetPoint" />
          </mxGeometry>
        </mxCell>
        <mxCell id="LxQ198Bzji2fROzqUYcq-66" style="edgeStyle=orthogonalEdgeStyle;rounded=0;orthogonalLoop=1;jettySize=auto;html=1;entryX=0.48;entryY=0.115;entryDx=0;entryDy=0;entryPerimeter=0;strokeColor=#FFFFF5;" edge="1" parent="1" source="LxQ198Bzji2fROzqUYcq-47" target="LxQ198Bzji2fROzqUYcq-43">
          <mxGeometry relative="1" as="geometry" />
        </mxCell>
        <mxCell id="LxQ198Bzji2fROzqUYcq-67" style="edgeStyle=orthogonalEdgeStyle;rounded=0;orthogonalLoop=1;jettySize=auto;html=1;entryX=0.07;entryY=0.4;entryDx=0;entryDy=0;entryPerimeter=0;strokeColor=#FFFFF5;" edge="1" parent="1" source="LxQ198Bzji2fROzqUYcq-42" target="LxQ198Bzji2fROzqUYcq-43">
          <mxGeometry relative="1" as="geometry">
            <Array as="points">
              <mxPoint x="1056" y="576" />
              <mxPoint x="1122" y="576" />
            </Array>
          </mxGeometry>
        </mxCell>
        <mxCell id="LxQ198Bzji2fROzqUYcq-68" value="" style="rounded=0;whiteSpace=wrap;html=1;fillColor=none;strokeColor=#FFFFF5;" vertex="1" parent="1">
          <mxGeometry x="119" y="151" width="1170" height="637" as="geometry" />
        </mxCell>
        <mxCell id="LxQ198Bzji2fROzqUYcq-69" value="&lt;b style=&quot;font-size: 20px;&quot;&gt;Final ERD&lt;/b&gt;" style="rounded=0;whiteSpace=wrap;html=1;fillColor=#dae8fc;strokeColor=#6c8ebf;fontSize=20;" vertex="1" parent="1">
          <mxGeometry x="119" y="112" width="1170" height="40" as="geometry" />
        </mxCell>
      </root>
    </mxGraphModel>
  </diagram>
</mxfile>
